<svg width="138" height="24" viewBox="0 0 138 24" fill="none" xmlns="http://www.w3.org/2000/svg">
<path d="M39.744 18H37.248V6.816H45.408V9.104H39.744V11.76H45.056V13.984H39.744V18ZM54.4533 14.8H48.6453C48.7573 15.568 49.4933 16.192 50.7893 16.192C51.4133 16.192 52.2773 16.048 52.8373 15.568L54.1333 17.008C53.2853 17.84 51.9253 18.176 50.7413 18.176C47.8773 18.176 46.3092 16.496 46.3092 13.968C46.3092 11.568 47.9253 9.888 50.5013 9.888C53.1893 9.888 54.9493 11.568 54.4533 14.8ZM48.6453 13.12H52.3893C52.3413 12.256 51.4613 11.856 50.5013 11.856C49.5733 11.856 48.8693 12.336 48.6453 13.12ZM62.0236 11.008L62.1036 10.096H64.2636C64.2636 12.72 64.2636 15.376 64.2636 18H62.1836L62.0556 17.008C61.5276 17.84 60.3916 18.16 59.6236 18.176C57.2556 18.192 55.5436 16.656 55.5436 14.048C55.5436 11.424 57.3516 9.888 59.6876 9.92C60.6796 9.92 61.6076 10.304 62.0236 11.008ZM59.9276 11.952C58.7756 11.952 57.8476 12.736 57.8476 14.048C57.8476 15.36 58.7756 16.128 59.9276 16.128C61.2236 16.128 62.0236 15.12 62.0236 14.128C62.0236 12.992 61.3036 11.952 59.9276 11.952ZM67.0424 8.192L69.3464 7.936V10.144H71.3464V12.064H69.3304V15.04C69.3304 15.872 69.7944 16.096 70.2264 16.096C70.4984 16.096 70.9304 16.032 71.1864 15.904L71.7144 17.824C71.1384 18.048 70.6744 18.144 70.0504 18.176C68.3384 18.256 67.0424 17.504 67.0424 15.04V12.064H65.6344V10.144H67.0424V8.192ZM72.9135 6.8H75.2335V11.072C75.8895 10.224 76.8335 9.968 77.6335 9.968C79.4895 9.968 80.7855 10.944 80.7855 13.76V18H78.4815V13.776C78.4815 12.672 77.8895 12.064 76.9775 12.064C76.0175 12.064 75.2175 12.736 75.2175 14V18H72.9135V6.8ZM90.3283 14.8H84.5203C84.6323 15.568 85.3683 16.192 86.6643 16.192C87.2883 16.192 88.1523 16.048 88.7123 15.568L90.0083 17.008C89.1603 17.84 87.8003 18.176 86.6163 18.176C83.7523 18.176 82.1842 16.496 82.1842 13.968C82.1842 11.568 83.8003 9.888 86.3763 9.888C89.0643 9.888 90.8243 11.568 90.3283 14.8ZM84.5203 13.12H88.2643C88.2163 12.256 87.3363 11.856 86.3763 11.856C85.4483 11.856 84.7443 12.336 84.5203 13.12ZM91.8666 10.112H94.0106L94.1866 10.976C94.7146 10.24 95.4186 9.92 96.2986 9.92C97.0506 9.92 97.6746 10.144 98.2346 10.64L97.2746 12.464C96.8906 12.192 96.4906 12.064 96.0106 12.064C95.0186 12.064 94.1706 12.704 94.1706 13.888V18H91.8666V10.112ZM104.955 6.8L110.602 14.08L110.443 10.56V6.8H112.955V18H110.811L105.243 10.832L105.339 14.512V18H102.811V6.8H104.955ZM122.688 14.8H116.88C116.992 15.568 117.728 16.192 119.024 16.192C119.648 16.192 120.512 16.048 121.072 15.568L122.368 17.008C121.52 17.84 120.16 18.176 118.976 18.176C116.112 18.176 114.544 16.496 114.544 13.968C114.544 11.568 116.16 9.888 118.736 9.888C121.424 9.888 123.184 11.568 122.688 14.8ZM116.88 13.12H120.624C120.576 12.256 119.696 11.856 118.736 11.856C117.808 11.856 117.104 12.336 116.88 13.12ZM130.338 10.896L129.202 12.336C128.61 11.92 128.05 11.76 127.33 11.76C126.578 11.76 126.194 12.032 126.194 12.416C126.194 12.848 126.594 13.088 127.362 13.104C128.914 13.152 130.786 13.472 130.802 15.648C130.818 16.928 129.858 18.304 127.346 18.304C126.178 18.304 124.978 18.08 123.634 16.96L124.626 15.328C125.602 16.128 126.546 16.304 127.378 16.32C128.05 16.336 128.578 16.064 128.562 15.648C128.562 15.28 128.29 14.976 127.218 14.944C125.746 14.88 123.906 14.272 123.906 12.416C123.906 10.624 125.602 9.872 127.314 9.872C128.53 9.872 129.506 10.176 130.338 10.896ZM133.011 8.192L135.315 7.936V10.144H137.315V12.064H135.299V15.04C135.299 15.872 135.763 16.096 136.195 16.096C136.467 16.096 136.899 16.032 137.155 15.904L137.683 17.824C137.107 18.048 136.643 18.144 136.019 18.176C134.307 18.256 133.011 17.504 133.011 15.04V12.064H131.603V10.144H133.011V8.192Z" fill="white"/>
<path d="M20 4H4C2.89543 4 2 4.89543 2 6V18C2 19.1046 2.89543 20 4 20H20C21.1046 20 22 19.1046 22 18V6C22 4.89543 21.1046 4 20 4Z" stroke="white" stroke-width="2.5" stroke-linecap="round" stroke-linejoin="round"/>
<path d="M6 8H6.01" stroke="white" stroke-width="2.5" stroke-linecap="round" stroke-linejoin="round"/>
<path d="M10 8H10.01" stroke="white" stroke-width="2.5" stroke-linecap="round" stroke-linejoin="round"/>
<path d="M14 8H14.01" stroke="white" stroke-width="2.5" stroke-linecap="round" stroke-linejoin="round"/>
</svg>
