<svg width="11" height="11" viewBox="0 0 11 11" fill="none" xmlns="http://www.w3.org/2000/svg">
<g clip-path="url(#clip0_1_219)">
<mask id="mask0_1_219" style="mask-type:luminance" maskUnits="userSpaceOnUse" x="0" y="0" width="11" height="11">
<path d="M11 0H0V11H11V0Z" fill="white"/>
</mask>
<g mask="url(#mask0_1_219)">
<path d="M6.99598 10.56C7.50931 10.8973 8.12531 11.044 8.74131 10.9707C9.35731 10.912 9.92931 10.6333 10.3546 10.1933L10.736 9.812C10.8973 9.636 11 9.416 11 9.16667C11 8.91733 10.912 8.69733 10.736 8.52133L9.12264 6.96667C8.96131 6.80533 8.72664 6.70267 8.49198 6.70267C8.25731 6.70267 8.02264 6.79067 7.86131 6.96667C7.68531 7.128 7.46531 7.23067 7.21598 7.23067C6.96664 7.23067 6.74664 7.14267 6.57064 6.96667L3.98931 4.38533C3.82798 4.20933 3.72531 3.98933 3.72531 3.74C3.72531 3.49067 3.81331 3.27067 3.98931 3.09467C4.15064 2.93333 4.25331 2.69867 4.25331 2.464C4.25331 2.22933 4.16531 1.99467 3.98931 1.83333L2.44931 0.264C2.27331 0.102667 2.05331 0 1.80398 0C1.55465 0 1.33465 0.088 1.15865 0.264L0.777312 0.645333C0.351978 1.07067 0.0879785 1.64267 0.0146452 2.25867C-0.0440215 2.87467 0.0879785 3.49067 0.425312 4.004C2.17065 6.6 4.39998 8.82933 6.99598 10.5747V10.56Z" fill="#0052E7"/>
</g>
</g>
<defs>
<clipPath id="clip0_1_219">
<rect width="11" height="11" fill="white"/>
</clipPath>
</defs>
</svg>
