<svg width="11" height="9" viewBox="0 0 11 9" fill="none" xmlns="http://www.w3.org/2000/svg">
<g clip-path="url(#clip0_1_217)">
<path d="M9.73598 3.24L6.59097 5.115C6.25992 5.31 5.88372 5.415 5.49248 5.415C5.10123 5.415 4.72503 5.31 4.39398 5.115L1.24897 3.24C1.12859 3.15 1.0383 3.03 0.99316 2.88C0.963064 2.73 0.99316 2.58 1.0684 2.445C1.14364 2.31 1.27907 2.22 1.4145 2.19C1.56498 2.145 1.71546 2.175 1.85089 2.25L4.9959 4.125C5.14638 4.215 5.3119 4.26 5.47743 4.26C5.64296 4.26 5.82353 4.215 5.95896 4.125L9.10397 2.25C9.2394 2.175 9.38988 2.16 9.54036 2.19C9.69083 2.235 9.81122 2.325 9.88646 2.445C9.9617 2.58 9.99179 2.73 9.9617 2.88C9.9316 3.03 9.84131 3.165 9.70588 3.24H9.73598ZM9.81122 0H1.17373C0.857729 0 0.556772 0.12 0.346101 0.345C0.120383 0.57 0 0.87 0 1.17V7.83C0 8.145 0.120383 8.445 0.346101 8.655C0.571819 8.88 0.872777 9 1.17373 9H9.81122C10.1272 9 10.4282 8.88 10.6389 8.655C10.8646 8.43 10.985 8.13 10.985 7.83V1.17C10.985 0.855 10.8646 0.555 10.6389 0.345C10.4131 0.12 10.1122 0 9.81122 0Z" fill="#0052E7"/>
</g>
<defs>
<clipPath id="clip0_1_217">
<rect width="11" height="9" fill="white"/>
</clipPath>
</defs>
</svg>
