<svg width="283" height="83" viewBox="0 0 283 83" fill="none" xmlns="http://www.w3.org/2000/svg">
<path d="M83.5368 53V29.7273H98.9459V33.7841H88.4572V39.3295H97.9231V43.3864H88.4572V53H83.5368ZM108.838 53.3409C107.042 53.3409 105.497 52.9773 104.202 52.25C102.914 51.5152 101.921 50.4773 101.224 49.1364C100.527 47.7879 100.179 46.1932 100.179 44.3523C100.179 42.5568 100.527 40.9811 101.224 39.625C101.921 38.2689 102.902 37.2121 104.167 36.4545C105.44 35.697 106.933 35.3182 108.645 35.3182C109.796 35.3182 110.868 35.5038 111.861 35.875C112.861 36.2386 113.732 36.7879 114.474 37.5227C115.224 38.2576 115.808 39.1818 116.224 40.2955C116.641 41.4015 116.849 42.697 116.849 44.1818V45.5114H102.111V42.5114H112.292C112.292 41.8144 112.141 41.197 111.838 40.6591C111.535 40.1212 111.114 39.7008 110.577 39.3977C110.046 39.0871 109.429 38.9318 108.724 38.9318C107.989 38.9318 107.338 39.1023 106.77 39.4432C106.209 39.7765 105.77 40.2273 105.452 40.7955C105.133 41.3561 104.97 41.9811 104.963 42.6705V45.5227C104.963 46.3864 105.122 47.1326 105.44 47.7614C105.766 48.3902 106.224 48.875 106.815 49.2159C107.406 49.5568 108.107 49.7273 108.917 49.7273C109.455 49.7273 109.948 49.6515 110.395 49.5C110.842 49.3485 111.224 49.1212 111.542 48.8182C111.861 48.5152 112.103 48.1439 112.27 47.7045L116.747 48C116.52 49.0758 116.054 50.0152 115.349 50.8182C114.652 51.6136 113.751 52.2348 112.645 52.6818C111.546 53.1212 110.277 53.3409 108.838 53.3409ZM124.986 53.3295C123.872 53.3295 122.88 53.1364 122.008 52.75C121.137 52.3561 120.448 51.7765 119.94 51.0114C119.44 50.2386 119.19 49.2765 119.19 48.125C119.19 47.1553 119.368 46.3409 119.724 45.6818C120.08 45.0227 120.565 44.4924 121.179 44.0909C121.792 43.6894 122.489 43.3864 123.27 43.1818C124.058 42.9773 124.883 42.8333 125.747 42.75C126.762 42.6439 127.58 42.5455 128.202 42.4545C128.823 42.3561 129.274 42.2121 129.554 42.0227C129.834 41.8333 129.974 41.553 129.974 41.1818V41.1136C129.974 40.3939 129.747 39.8371 129.292 39.4432C128.845 39.0492 128.209 38.8523 127.383 38.8523C126.512 38.8523 125.819 39.0455 125.304 39.4318C124.789 39.8106 124.448 40.2879 124.281 40.8636L119.804 40.5C120.031 39.4394 120.478 38.5227 121.145 37.75C121.811 36.9697 122.671 36.3712 123.724 35.9545C124.785 35.5303 126.012 35.3182 127.406 35.3182C128.376 35.3182 129.304 35.4318 130.19 35.6591C131.084 35.8864 131.876 36.2386 132.565 36.7159C133.262 37.1932 133.811 37.8068 134.213 38.5568C134.614 39.2992 134.815 40.1894 134.815 41.2273V53H130.224V50.5795H130.088C129.808 51.125 129.433 51.6061 128.963 52.0227C128.493 52.4318 127.929 52.7538 127.27 52.9886C126.611 53.2159 125.849 53.3295 124.986 53.3295ZM126.372 49.9886C127.084 49.9886 127.713 49.8485 128.258 49.5682C128.804 49.2803 129.232 48.8939 129.542 48.4091C129.853 47.9242 130.008 47.375 130.008 46.7614V44.9091C129.857 45.0076 129.649 45.0985 129.383 45.1818C129.126 45.2576 128.834 45.3295 128.508 45.3977C128.183 45.4583 127.857 45.5152 127.531 45.5682C127.205 45.6136 126.91 45.6553 126.645 45.6932C126.077 45.7765 125.58 45.9091 125.156 46.0909C124.732 46.2727 124.402 46.5189 124.167 46.8295C123.933 47.1326 123.815 47.5114 123.815 47.9659C123.815 48.625 124.054 49.1288 124.531 49.4773C125.016 49.8182 125.63 49.9886 126.372 49.9886ZM147.855 35.5455V39.1818H137.344V35.5455H147.855ZM139.73 31.3636H144.571V47.6364C144.571 48.0833 144.639 48.4318 144.775 48.6818C144.912 48.9242 145.101 49.0947 145.344 49.1932C145.594 49.2917 145.881 49.3409 146.207 49.3409C146.434 49.3409 146.662 49.322 146.889 49.2841C147.116 49.2386 147.291 49.2045 147.412 49.1818L148.173 52.7841C147.931 52.8598 147.59 52.947 147.15 53.0455C146.711 53.1515 146.177 53.2159 145.548 53.2386C144.381 53.2841 143.359 53.1288 142.48 52.7727C141.609 52.4167 140.931 51.8636 140.446 51.1136C139.961 50.3636 139.722 49.4167 139.73 48.2727V31.3636ZM156.224 42.9091V53H151.383V29.7273H156.088V38.625H156.292C156.686 37.5947 157.323 36.7879 158.202 36.2045C159.08 35.6136 160.183 35.3182 161.508 35.3182C162.72 35.3182 163.777 35.5833 164.679 36.1136C165.588 36.6364 166.292 37.3902 166.792 38.375C167.3 39.3523 167.55 40.5227 167.542 41.8864V53H162.702V42.75C162.709 41.6742 162.436 40.8371 161.883 40.2386C161.338 39.6402 160.573 39.3409 159.588 39.3409C158.929 39.3409 158.345 39.4811 157.838 39.7614C157.338 40.0417 156.944 40.4508 156.656 40.9886C156.376 41.5189 156.232 42.1591 156.224 42.9091ZM179.307 53.3409C177.511 53.3409 175.966 52.9773 174.67 52.25C173.382 51.5152 172.39 50.4773 171.693 49.1364C170.996 47.7879 170.648 46.1932 170.648 44.3523C170.648 42.5568 170.996 40.9811 171.693 39.625C172.39 38.2689 173.371 37.2121 174.636 36.4545C175.909 35.697 177.401 35.3182 179.113 35.3182C180.265 35.3182 181.337 35.5038 182.329 35.875C183.329 36.2386 184.201 36.7879 184.943 37.5227C185.693 38.2576 186.276 39.1818 186.693 40.2955C187.11 41.4015 187.318 42.697 187.318 44.1818V45.5114H172.579V42.5114H182.761C182.761 41.8144 182.61 41.197 182.307 40.6591C182.004 40.1212 181.583 39.7008 181.045 39.3977C180.515 39.0871 179.898 38.9318 179.193 38.9318C178.458 38.9318 177.807 39.1023 177.238 39.4432C176.678 39.7765 176.238 40.2273 175.92 40.7955C175.602 41.3561 175.439 41.9811 175.432 42.6705V45.5227C175.432 46.3864 175.591 47.1326 175.909 47.7614C176.235 48.3902 176.693 48.875 177.284 49.2159C177.875 49.5568 178.576 49.7273 179.386 49.7273C179.924 49.7273 180.417 49.6515 180.863 49.5C181.31 49.3485 181.693 49.1212 182.011 48.8182C182.329 48.5152 182.572 48.1439 182.738 47.7045L187.216 48C186.988 49.0758 186.523 50.0152 185.818 50.8182C185.121 51.6136 184.22 52.2348 183.113 52.6818C182.015 53.1212 180.746 53.3409 179.307 53.3409ZM190.477 53V35.5455H195.17V38.5909H195.352C195.67 37.5076 196.204 36.6894 196.954 36.1364C197.704 35.5758 198.568 35.2955 199.545 35.2955C199.788 35.2955 200.049 35.3106 200.329 35.3409C200.61 35.3712 200.856 35.4129 201.068 35.4659V39.7614C200.841 39.6932 200.526 39.6326 200.125 39.5795C199.723 39.5265 199.356 39.5 199.023 39.5C198.31 39.5 197.674 39.6553 197.113 39.9659C196.56 40.2689 196.121 40.6932 195.795 41.2386C195.477 41.7841 195.318 42.4129 195.318 43.125V53H190.477ZM230.534 29.7273V53H226.284L216.159 38.3523H215.988V53H211.068V29.7273H215.386L225.432 44.3636H225.636V29.7273H230.534ZM242.463 53.3409C240.667 53.3409 239.122 52.9773 237.827 52.25C236.539 51.5152 235.546 50.4773 234.849 49.1364C234.152 47.7879 233.804 46.1932 233.804 44.3523C233.804 42.5568 234.152 40.9811 234.849 39.625C235.546 38.2689 236.527 37.2121 237.792 36.4545C239.065 35.697 240.558 35.3182 242.27 35.3182C243.421 35.3182 244.493 35.5038 245.486 35.875C246.486 36.2386 247.357 36.7879 248.099 37.5227C248.849 38.2576 249.433 39.1818 249.849 40.2955C250.266 41.4015 250.474 42.697 250.474 44.1818V45.5114H235.736V42.5114H245.917C245.917 41.8144 245.766 41.197 245.463 40.6591C245.16 40.1212 244.739 39.7008 244.202 39.3977C243.671 39.0871 243.054 38.9318 242.349 38.9318C241.614 38.9318 240.963 39.1023 240.395 39.4432C239.834 39.7765 239.395 40.2273 239.077 40.7955C238.758 41.3561 238.595 41.9811 238.588 42.6705V45.5227C238.588 46.3864 238.747 47.1326 239.065 47.7614C239.391 48.3902 239.849 48.875 240.44 49.2159C241.031 49.5568 241.732 49.7273 242.542 49.7273C243.08 49.7273 243.573 49.6515 244.02 49.5C244.467 49.3485 244.849 49.1212 245.167 48.8182C245.486 48.5152 245.728 48.1439 245.895 47.7045L250.372 48C250.145 49.0758 249.679 50.0152 248.974 50.8182C248.277 51.6136 247.376 52.2348 246.27 52.6818C245.171 53.1212 243.902 53.3409 242.463 53.3409ZM268.156 40.5227L263.724 40.7955C263.649 40.4167 263.486 40.0758 263.236 39.7727C262.986 39.4621 262.656 39.2159 262.247 39.0341C261.845 38.8447 261.364 38.75 260.804 38.75C260.054 38.75 259.421 38.9091 258.906 39.2273C258.391 39.5379 258.133 39.9545 258.133 40.4773C258.133 40.8939 258.3 41.2462 258.633 41.5341C258.967 41.822 259.539 42.053 260.349 42.2273L263.508 42.8636C265.205 43.2121 266.47 43.7727 267.304 44.5455C268.137 45.3182 268.554 46.3333 268.554 47.5909C268.554 48.7348 268.217 49.7386 267.542 50.6023C266.876 51.4659 265.959 52.1402 264.792 52.625C263.633 53.1023 262.296 53.3409 260.781 53.3409C258.47 53.3409 256.63 52.8598 255.258 51.8977C253.895 50.928 253.095 49.6098 252.861 47.9432L257.622 47.6932C257.766 48.3977 258.114 48.9356 258.667 49.3068C259.22 49.6705 259.929 49.8523 260.792 49.8523C261.641 49.8523 262.323 49.6894 262.838 49.3636C263.361 49.0303 263.626 48.6023 263.633 48.0795C263.626 47.6402 263.44 47.2803 263.077 47C262.713 46.7121 262.152 46.4924 261.395 46.3409L258.372 45.7386C256.667 45.3977 255.399 44.8068 254.565 43.9659C253.739 43.125 253.327 42.053 253.327 40.75C253.327 39.6288 253.63 38.6629 254.236 37.8523C254.849 37.0417 255.709 36.4167 256.815 35.9773C257.929 35.5379 259.232 35.3182 260.724 35.3182C262.929 35.3182 264.664 35.7841 265.929 36.7159C267.202 37.6477 267.944 38.9167 268.156 40.5227ZM280.886 35.5455V39.1818H270.375V35.5455H280.886ZM272.761 31.3636H277.602V47.6364C277.602 48.0833 277.67 48.4318 277.807 48.6818C277.943 48.9242 278.132 49.0947 278.375 49.1932C278.625 49.2917 278.913 49.3409 279.238 49.3409C279.466 49.3409 279.693 49.322 279.92 49.2841C280.148 49.2386 280.322 49.2045 280.443 49.1818L281.204 52.7841C280.962 52.8598 280.621 52.947 280.182 53.0455C279.742 53.1515 279.208 53.2159 278.579 53.2386C277.413 53.2841 276.39 53.1288 275.511 52.7727C274.64 52.4167 273.962 51.8636 273.477 51.1136C272.992 50.3636 272.754 49.4167 272.761 48.2727V31.3636Z" fill="white"/>
<path opacity="0.4" d="M14.2279 25.8785L42.4103 16.474C55.0643 12.256 61.938 19.161 57.7513 31.815L48.3467 59.9974C42.0354 78.9628 31.6622 78.9628 25.3509 59.9974L22.5701 51.6239L14.1967 48.8432C-4.73742 42.5631 -4.73742 32.2212 14.2279 25.8785Z" fill="#20DC49"/>
<path d="M29.8812 43.5942L41.7853 31.6588L29.8812 43.5942Z" fill="#20DC49"/>
<path d="M29.8815 45.9375C29.2879 45.9375 28.6943 45.7188 28.2256 45.2501C27.3195 44.3441 27.3195 42.8443 28.2256 41.9382L40.0984 30.0029C41.0045 29.0968 42.5043 29.0968 43.4103 30.0029C44.3164 30.909 44.3164 32.4087 43.4103 33.3148L31.5375 45.2501C31.0688 45.6876 30.4752 45.9375 29.8815 45.9375Z" fill="#20DC49"/>
</svg>
